<svg width="1440" height="796" viewBox="0 0 1440 796" fill="none" xmlns="http://www.w3.org/2000/svg">
<g style="mix-blend-mode:multiply" opacity="0.5">
<path d="M161.45 517.254L138.852 494.655C137.794 493.597 136.359 493.003 134.864 493.003C133.368 493.003 131.933 493.597 130.875 494.655L112.243 513.286L93.6084 494.652C92.5506 493.595 91.116 493.001 89.6203 493.001C88.1245 493.001 86.6899 493.595 85.6322 494.652L67.0829 513.202L48.5336 494.652C48.0099 494.128 47.3882 493.713 46.7039 493.429C46.0196 493.146 45.2861 493 44.5455 493C43.8048 493 43.0714 493.146 42.3871 493.429C41.7028 493.713 41.081 494.128 40.5574 494.652L21.9336 513.286L3.30202 494.652C2.24424 493.595 0.8097 493.001 -0.686081 493.001C-2.18187 493.001 -3.61641 493.595 -4.67419 494.652L-23.2235 513.202L-41.7728 494.652C-42.8305 493.595 -44.2651 493.001 -45.7609 493.001C-47.2567 493.001 -48.6912 493.595 -49.749 494.652L-72.3478 517.251C-72.8716 517.775 -73.2871 518.396 -73.5706 519.081C-73.8541 519.765 -74 520.498 -74 521.239C-74 521.98 -73.8541 522.713 -73.5706 523.398C-73.2871 524.082 -72.8716 524.704 -72.3478 525.227C-71.29 526.285 -69.8554 526.879 -68.3597 526.879C-66.8639 526.879 -65.4293 526.285 -64.3716 525.227L-49.7503 510.606C-48.6925 509.548 -47.258 508.954 -45.7622 508.954C-44.2664 508.954 -42.8319 509.548 -41.7741 510.606L-27.8699 524.507C-27.6941 524.763 -27.4975 525.003 -27.2821 525.226C-26.7514 525.757 -26.1196 526.176 -25.424 526.459C-24.7285 526.742 -23.9834 526.882 -23.2326 526.872C-22.4819 526.882 -21.7367 526.742 -21.0412 526.459C-20.3457 526.176 -19.7138 525.757 -19.1831 525.226C-18.9676 525.003 -18.7709 524.763 -18.5953 524.507L-4.69117 510.606C-3.63338 509.548 -2.19885 508.954 -0.703064 508.954C0.792717 508.954 2.22726 509.548 3.28503 510.606L17.9063 525.227C18.4321 525.754 19.0574 526.172 19.7458 526.455C20.4343 526.738 21.1722 526.882 21.9166 526.877C22.6611 526.882 23.399 526.738 24.0874 526.455C24.7759 526.172 25.4012 525.754 25.9269 525.227L40.5508 510.606C41.0745 510.082 41.6962 509.667 42.3805 509.383C43.0648 509.1 43.7982 508.954 44.5389 508.954C45.2796 508.954 46.0131 509.1 46.6973 509.383C47.3816 509.667 48.0034 510.082 48.527 510.606L62.4482 524.509C62.6242 524.765 62.8213 525.006 63.0373 525.23C63.568 525.761 64.1998 526.18 64.8954 526.463C65.5909 526.746 66.336 526.886 67.0868 526.876C67.8375 526.886 68.5827 526.746 69.2782 526.463C69.9737 526.18 70.6055 525.761 71.1363 525.23C71.3521 525.007 71.5491 524.766 71.7254 524.51L85.6256 510.61C86.6834 509.552 88.1179 508.958 89.6137 508.958C91.1095 508.958 92.544 509.552 93.6018 510.61L108.226 525.231C108.752 525.758 109.377 526.175 110.065 526.458C110.754 526.741 111.492 526.884 112.236 526.88C112.98 526.884 113.718 526.741 114.407 526.458C115.095 526.175 115.72 525.758 116.246 525.231L130.877 510.61C131.935 509.552 133.369 508.958 134.865 508.958C136.361 508.958 137.795 509.552 138.853 510.61L153.474 525.231C154.532 526.289 155.967 526.883 157.462 526.883C158.958 526.883 160.393 526.289 161.45 525.231C161.974 524.707 162.39 524.086 162.674 523.401C162.957 522.717 163.103 521.983 163.103 521.242C163.103 520.502 162.957 519.768 162.674 519.084C162.39 518.399 161.974 517.777 161.45 517.254Z" fill="#FFD3A9"/>
<path d="M161.45 517.254L138.852 494.655C137.794 493.597 136.359 493.003 134.864 493.003C133.368 493.003 131.933 493.597 130.875 494.655L112.243 513.286L93.6084 494.652C92.5506 493.595 91.116 493.001 89.6203 493.001C88.1245 493.001 86.6899 493.595 85.6322 494.652L67.0829 513.202L48.5336 494.652C48.0099 494.128 47.3882 493.713 46.7039 493.429C46.0196 493.146 45.2861 493 44.5455 493C43.8048 493 43.0714 493.146 42.3871 493.429C41.7028 493.713 41.081 494.128 40.5574 494.652L21.9336 513.286L3.30202 494.652C2.24424 493.595 0.8097 493.001 -0.686081 493.001C-2.18187 493.001 -3.61641 493.595 -4.67419 494.652L-23.2235 513.202L-41.7728 494.652C-42.8305 493.595 -44.2651 493.001 -45.7609 493.001C-47.2567 493.001 -48.6912 493.595 -49.749 494.652L-72.3478 517.251C-72.8716 517.775 -73.2871 518.396 -73.5706 519.081C-73.8541 519.765 -74 520.498 -74 521.239C-74 521.98 -73.8541 522.713 -73.5706 523.398C-73.2871 524.082 -72.8716 524.704 -72.3478 525.227C-71.29 526.285 -69.8554 526.879 -68.3597 526.879C-66.8639 526.879 -65.4293 526.285 -64.3716 525.227L-49.7503 510.606C-48.6925 509.548 -47.258 508.954 -45.7622 508.954C-44.2664 508.954 -42.8319 509.548 -41.7741 510.606L-27.8699 524.507C-27.6941 524.763 -27.4975 525.003 -27.2821 525.226C-26.7514 525.757 -26.1196 526.176 -25.424 526.459C-24.7285 526.742 -23.9834 526.882 -23.2326 526.872C-22.4819 526.882 -21.7367 526.742 -21.0412 526.459C-20.3457 526.176 -19.7138 525.757 -19.1831 525.226C-18.9676 525.003 -18.7709 524.763 -18.5953 524.507L-4.69117 510.606C-3.63338 509.548 -2.19885 508.954 -0.703064 508.954C0.792717 508.954 2.22726 509.548 3.28503 510.606L17.9063 525.227C18.4321 525.754 19.0574 526.172 19.7458 526.455C20.4343 526.738 21.1722 526.882 21.9166 526.877C22.6611 526.882 23.399 526.738 24.0874 526.455C24.7759 526.172 25.4012 525.754 25.9269 525.227L40.5508 510.606C41.0745 510.082 41.6962 509.667 42.3805 509.383C43.0648 509.1 43.7982 508.954 44.5389 508.954C45.2796 508.954 46.0131 509.1 46.6973 509.383C47.3816 509.667 48.0034 510.082 48.527 510.606L62.4482 524.509C62.6242 524.765 62.8213 525.006 63.0373 525.23C63.568 525.761 64.1998 526.18 64.8954 526.463C65.5909 526.746 66.336 526.886 67.0868 526.876C67.8375 526.886 68.5827 526.746 69.2782 526.463C69.9737 526.18 70.6055 525.761 71.1363 525.23C71.3521 525.007 71.5491 524.766 71.7254 524.51L85.6256 510.61C86.6834 509.552 88.1179 508.958 89.6137 508.958C91.1095 508.958 92.544 509.552 93.6018 510.61L108.226 525.231C108.752 525.758 109.377 526.175 110.065 526.458C110.754 526.741 111.492 526.884 112.236 526.88C112.98 526.884 113.718 526.741 114.407 526.458C115.095 526.175 115.72 525.758 116.246 525.231L130.877 510.61C131.935 509.552 133.369 508.958 134.865 508.958C136.361 508.958 137.795 509.552 138.853 510.61L153.474 525.231C154.532 526.289 155.967 526.883 157.462 526.883C158.958 526.883 160.393 526.289 161.45 525.231C161.974 524.707 162.39 524.086 162.674 523.401C162.957 522.717 163.103 521.983 163.103 521.242C163.103 520.502 162.957 519.768 162.674 519.084C162.39 518.399 161.974 517.777 161.45 517.254Z" fill="white" fill-opacity="0.2"/>
</g>
<path d="M450.168 368.337C452.47 368.337 454.337 366.47 454.337 364.168C454.337 361.866 452.47 360 450.168 360C447.866 360 446 361.866 446 364.168C446 366.47 447.866 368.337 450.168 368.337Z" stroke="white" stroke-width="2" stroke-miterlimit="10"/>
<path d="M870.58 545.648C867.498 545.648 865 543.149 865 540.067C865 536.985 867.498 534.487 870.58 534.487C873.662 534.487 876.161 536.985 876.161 540.067C876.161 543.149 873.662 545.648 870.58 545.648Z" stroke="white" stroke-width="2" stroke-miterlimit="10"/>
<path d="M1102.88 720.296L1121.81 806.615C1122.62 810.297 1124.43 813.686 1127.03 816.41C1129.64 819.133 1132.95 821.086 1136.59 822.055C1140.23 823.023 1144.07 822.969 1147.69 821.899C1151.3 820.829 1154.55 818.784 1157.08 815.989L1191.5 777.947L1225.92 739.905C1228.45 737.11 1230.16 733.672 1230.87 729.968C1231.57 726.265 1231.24 722.439 1229.91 718.911C1228.59 715.382 1226.32 712.287 1223.35 709.965C1220.38 707.643 1216.82 706.184 1213.08 705.747L1125.3 695.512C1122.05 695.135 1118.76 695.538 1115.7 696.69C1112.64 697.841 1109.9 699.706 1107.71 702.131C1105.51 704.556 1103.93 707.469 1103.09 710.629C1102.25 713.788 1102.18 717.103 1102.88 720.296Z" fill="#FFB793"/>
<g style="mix-blend-mode:multiply" opacity="0.5">
<path d="M1173.03 882.304L1303.68 743.659C1328.35 717.479 1313.12 674.365 1277.49 669.478L1167.92 654.456L1058.35 639.433C1022.71 634.545 996.444 671.968 1013.15 703.824L1101.64 872.526C1104.92 878.768 1109.64 884.137 1115.41 888.186C1121.18 892.235 1127.83 894.846 1134.82 895.803C1141.8 896.759 1148.91 896.033 1155.56 893.685C1162.21 891.337 1168.2 887.435 1173.03 882.304V882.304Z" stroke="#FFD3A9" stroke-width="8" stroke-miterlimit="10"/>
<path d="M1173.03 882.304L1303.68 743.659C1328.35 717.479 1313.12 674.365 1277.49 669.478L1167.92 654.456L1058.35 639.433C1022.71 634.545 996.444 671.968 1013.15 703.824L1101.64 872.526C1104.92 878.768 1109.64 884.137 1115.41 888.186C1121.18 892.235 1127.83 894.846 1134.82 895.803C1141.8 896.759 1148.91 896.033 1155.56 893.685C1162.21 891.337 1168.2 887.435 1173.03 882.304V882.304Z" stroke="white" stroke-opacity="0.2" stroke-width="8" stroke-miterlimit="10"/>
</g>
<g style="mix-blend-mode:overlay">
<path d="M610.292 535.631L257.575 720.356C190.971 755.234 191.615 850.795 258.683 884.777L464.883 989.245L671.077 1093.71C738.144 1127.69 815.577 1071.69 804.309 997.36L744.638 603.697C735.114 540.892 666.565 506.161 610.292 535.631Z" fill="#FFB793"/>
</g>
<path d="M950.959 490.67L947.77 507.26C947.636 507.969 947.309 508.627 946.824 509.162C946.34 509.697 945.717 510.088 945.025 510.291C944.332 510.494 943.597 510.503 942.9 510.315C942.204 510.127 941.572 509.751 941.076 509.227L934.307 502.127L927.537 495.028C927.038 494.507 926.692 493.858 926.538 493.153C926.384 492.448 926.427 491.714 926.663 491.033C926.9 490.351 927.32 489.747 927.877 489.289C928.434 488.831 929.107 488.535 929.822 488.435L946.543 486.042C947.162 485.951 947.795 486.009 948.388 486.213C948.98 486.417 949.515 486.76 949.948 487.213C950.381 487.667 950.698 488.217 950.874 488.819C951.05 489.42 951.079 490.055 950.959 490.67Z" stroke="white" stroke-width="5" stroke-miterlimit="10"/>
<path d="M585.21 408.206L557.852 413.464C556.685 413.688 555.603 414.23 554.723 415.029C553.843 415.828 553.201 416.854 552.866 417.994C552.531 419.134 552.516 420.345 552.824 421.493C553.131 422.641 553.749 423.682 554.609 424.502L566.314 435.662L578.02 446.821C578.88 447.641 579.949 448.209 581.111 448.461C582.272 448.713 583.481 448.641 584.603 448.252C585.726 447.862 586.72 447.172 587.476 446.255C588.232 445.338 588.721 444.23 588.89 443.054L592.836 415.475C592.982 414.455 592.882 413.415 592.544 412.441C592.207 411.467 591.641 410.588 590.895 409.877C590.149 409.165 589.244 408.643 588.255 408.352C587.266 408.062 586.222 408.011 585.21 408.206V408.206Z" stroke="white" stroke-width="5" stroke-miterlimit="10"/>
<g style="mix-blend-mode:multiply" opacity="0.5">
<path d="M416.452 708.25L393.853 685.652C392.795 684.594 391.361 684 389.865 684C388.369 684 386.935 684.594 385.877 685.652L367.243 704.286L348.61 685.652C347.552 684.594 346.117 684 344.622 684C343.126 684 341.691 684.594 340.633 685.652L322.084 704.201L303.535 685.652C302.477 684.594 301.043 684 299.547 684C298.051 684 296.617 684.594 295.559 685.652L276.924 704.285L258.302 685.652C257.244 684.594 255.81 684 254.314 684C252.818 684 251.384 684.594 250.326 685.652L231.777 704.201L213.227 685.652C212.169 684.594 210.735 684 209.239 684C207.743 684 206.309 684.594 205.251 685.652L182.652 708.25C182.128 708.774 181.713 709.396 181.429 710.08C181.146 710.764 181 711.498 181 712.239C181 712.979 181.146 713.713 181.429 714.397C181.713 715.081 182.128 715.703 182.652 716.227C183.71 717.284 185.145 717.878 186.64 717.878C188.136 717.878 189.571 717.284 190.628 716.227L205.25 701.605C206.308 700.548 207.742 699.954 209.238 699.954C210.734 699.954 212.168 700.548 213.226 701.605L227.141 715.504C227.317 715.76 227.513 716 227.728 716.224C228.814 717.28 230.269 717.87 231.783 717.87C233.297 717.87 234.752 717.28 235.838 716.224C236.053 716.001 236.25 715.76 236.426 715.504L250.33 701.603C251.388 700.546 252.822 699.952 254.318 699.952C255.814 699.952 257.248 700.546 258.306 701.603L272.923 716.219C273.991 717.276 275.432 717.868 276.934 717.868C278.436 717.868 279.877 717.276 280.944 716.219L295.568 701.596C296.626 700.539 298.06 699.945 299.556 699.945C301.052 699.945 302.486 700.539 303.544 701.596L317.446 715.498C317.622 715.754 317.819 715.995 318.035 716.219C318.615 716.82 319.321 717.285 320.103 717.579C320.885 717.873 321.722 717.99 322.554 717.921C323.387 717.852 324.193 717.599 324.916 717.18C325.639 716.761 326.259 716.186 326.732 715.498L340.632 701.598C341.69 700.54 343.125 699.946 344.62 699.946C346.116 699.946 347.55 700.54 348.608 701.598L363.232 716.219C364.299 717.276 365.741 717.868 367.243 717.868C368.744 717.868 370.186 717.276 371.253 716.219L385.877 701.598C386.935 700.54 388.369 699.946 389.865 699.946C391.361 699.946 392.795 700.54 393.853 701.598L408.474 716.219C409.532 717.276 410.967 717.871 412.462 717.871C413.958 717.871 415.393 717.276 416.45 716.219C417.506 715.162 418.099 713.729 418.099 712.235C418.099 710.741 417.507 709.308 416.452 708.25Z" fill="#FFD3A9"/>
<path d="M416.452 708.25L393.853 685.652C392.795 684.594 391.361 684 389.865 684C388.369 684 386.935 684.594 385.877 685.652L367.243 704.286L348.61 685.652C347.552 684.594 346.117 684 344.622 684C343.126 684 341.691 684.594 340.633 685.652L322.084 704.201L303.535 685.652C302.477 684.594 301.043 684 299.547 684C298.051 684 296.617 684.594 295.559 685.652L276.924 704.285L258.302 685.652C257.244 684.594 255.81 684 254.314 684C252.818 684 251.384 684.594 250.326 685.652L231.777 704.201L213.227 685.652C212.169 684.594 210.735 684 209.239 684C207.743 684 206.309 684.594 205.251 685.652L182.652 708.25C182.128 708.774 181.713 709.396 181.429 710.08C181.146 710.764 181 711.498 181 712.239C181 712.979 181.146 713.713 181.429 714.397C181.713 715.081 182.128 715.703 182.652 716.227C183.71 717.284 185.145 717.878 186.64 717.878C188.136 717.878 189.571 717.284 190.628 716.227L205.25 701.605C206.308 700.548 207.742 699.954 209.238 699.954C210.734 699.954 212.168 700.548 213.226 701.605L227.141 715.504C227.317 715.76 227.513 716 227.728 716.224C228.814 717.28 230.269 717.87 231.783 717.87C233.297 717.87 234.752 717.28 235.838 716.224C236.053 716.001 236.25 715.76 236.426 715.504L250.33 701.603C251.388 700.546 252.822 699.952 254.318 699.952C255.814 699.952 257.248 700.546 258.306 701.603L272.923 716.219C273.991 717.276 275.432 717.868 276.934 717.868C278.436 717.868 279.877 717.276 280.944 716.219L295.568 701.596C296.626 700.539 298.06 699.945 299.556 699.945C301.052 699.945 302.486 700.539 303.544 701.596L317.446 715.498C317.622 715.754 317.819 715.995 318.035 716.219C318.615 716.82 319.321 717.285 320.103 717.579C320.885 717.873 321.722 717.99 322.554 717.921C323.387 717.852 324.193 717.599 324.916 717.18C325.639 716.761 326.259 716.186 326.732 715.498L340.632 701.598C341.69 700.54 343.125 699.946 344.62 699.946C346.116 699.946 347.55 700.54 348.608 701.598L363.232 716.219C364.299 717.276 365.741 717.868 367.243 717.868C368.744 717.868 370.186 717.276 371.253 716.219L385.877 701.598C386.935 700.54 388.369 699.946 389.865 699.946C391.361 699.946 392.795 700.54 393.853 701.598L408.474 716.219C409.532 717.276 410.967 717.871 412.462 717.871C413.958 717.871 415.393 717.276 416.45 716.219C417.506 715.162 418.099 713.729 418.099 712.235C418.099 710.741 417.507 709.308 416.452 708.25Z" fill="white" fill-opacity="0.2"/>
</g>
<g style="mix-blend-mode:screen" opacity="0.469">
<path d="M63.335 640.67C189.993 640.67 292.67 537.993 292.67 411.335C292.67 284.677 189.993 182 63.335 182C-63.3232 182 -166 284.677 -166 411.335C-166 537.993 -63.3232 640.67 63.335 640.67Z" fill="white"/>
</g>
<g style="mix-blend-mode:overlay">
<path d="M1410.13 26.464L1125.82 305.219C1072.13 357.863 1100.36 449.154 1174.39 462.307L1401.97 502.747L1629.56 543.186C1703.58 556.34 1761.53 480.354 1729.27 412.446L1558.4 52.8131C1531.15 -4.56429 1455.49 -18.0086 1410.13 26.464Z" fill="#FFB793"/>
</g>
</svg>
