<svg width="1321" height="313" viewBox="0 0 1321 313" fill="none" xmlns="http://www.w3.org/2000/svg">
<path d="M1150.34 302.671C1154.94 302.671 1158.67 298.939 1158.67 294.335C1158.67 289.732 1154.94 286 1150.34 286C1145.73 286 1142 289.732 1142 294.335C1142 298.939 1145.73 302.671 1150.34 302.671Z" stroke="white" stroke-width="2" stroke-miterlimit="10"/>
<path d="M261.335 202.671C265.939 202.671 269.671 198.939 269.671 194.335C269.671 189.732 265.939 186 261.335 186C256.732 186 253 189.732 253 194.335C253 198.939 256.732 202.671 261.335 202.671Z" stroke="white" stroke-width="2" stroke-miterlimit="10"/>
<path d="M983.335 188.671C987.939 188.671 991.671 184.939 991.671 180.335C991.671 175.732 987.939 172 983.335 172C978.732 172 975 175.732 975 180.335C975 184.939 978.732 188.671 983.335 188.671Z" stroke="white" stroke-width="2" stroke-miterlimit="10"/>
<g style="mix-blend-mode:multiply" opacity="0.5">
<path d="M82.1752 284.722L157.173 125.362C171.336 95.2708 145.579 61.7462 112.855 67.6911L12.2496 85.9478L-88.3555 104.206C-121.079 110.144 -133.422 150.579 -109.584 173.772L16.6283 296.617C21.2987 301.163 26.9876 304.527 33.2213 306.429C39.455 308.332 46.053 308.717 52.4658 307.553C58.8785 306.39 64.9204 303.71 70.0882 299.739C75.256 295.768 79.4 290.619 82.1752 284.722V284.722Z" stroke="#FFD3A9" stroke-width="8" stroke-miterlimit="10"/>
<path d="M82.1752 284.722L157.173 125.362C171.336 95.2708 145.579 61.7462 112.855 67.6911L12.2496 85.9478L-88.3555 104.206C-121.079 110.144 -133.422 150.579 -109.584 173.772L16.6283 296.617C21.2987 301.163 26.9876 304.527 33.2213 306.429C39.455 308.332 46.053 308.717 52.4658 307.553C58.8785 306.39 64.9204 303.71 70.0882 299.739C75.256 295.768 79.4 290.619 82.1752 284.722V284.722Z" stroke="white" stroke-opacity="0.2" stroke-width="8" stroke-miterlimit="10"/>
</g>
<path d="M274.083 251.483L277.831 270.988C277.99 271.82 278.376 272.592 278.946 273.219C279.516 273.846 280.247 274.304 281.06 274.543C281.873 274.782 282.736 274.792 283.555 274.573C284.373 274.354 285.115 273.913 285.7 273.3L293.654 264.949L301.609 256.603C302.194 255.99 302.599 255.227 302.779 254.399C302.959 253.571 302.908 252.71 302.63 251.909C302.353 251.108 301.861 250.399 301.207 249.86C300.553 249.321 299.764 248.972 298.925 248.852L279.266 246.047C278.539 245.942 277.797 246.014 277.103 246.254C276.408 246.495 275.781 246.898 275.274 247.43C274.767 247.962 274.394 248.607 274.187 249.312C273.98 250.017 273.944 250.762 274.083 251.483V251.483Z" stroke="white" stroke-width="5" stroke-miterlimit="10"/>
<g style="mix-blend-mode:multiply" opacity="0.5">
<path d="M991.427 -6.38261L1156.04 175.89C1187.13 210.308 1244.11 195.223 1254.09 149.931L1284.77 10.6814L1315.45 -128.569C1325.43 -173.861 1280.06 -211.499 1237.39 -193.331L1011.42 -97.1044C1003.05 -93.5441 995.663 -88.0373 989.86 -81.0427C984.056 -74.048 980.008 -65.768 978.053 -56.8923C976.097 -48.0166 976.291 -38.8021 978.617 -30.0162C980.943 -21.2304 985.335 -13.1275 991.427 -6.38261V-6.38261Z" stroke="#FFD3A9" stroke-width="8" stroke-miterlimit="10"/>
<path d="M991.427 -6.38261L1156.04 175.89C1187.13 210.308 1244.11 195.223 1254.09 149.931L1284.77 10.6814L1315.45 -128.569C1325.43 -173.861 1280.06 -211.499 1237.39 -193.331L1011.42 -97.1044C1003.05 -93.5441 995.663 -88.0373 989.86 -81.0427C984.056 -74.048 980.008 -65.768 978.053 -56.8923C976.097 -48.0166 976.291 -38.8021 978.617 -30.0162C980.943 -21.2304 985.335 -13.1275 991.427 -6.38261V-6.38261Z" stroke="white" stroke-opacity="0.2" stroke-width="8" stroke-miterlimit="10"/>
</g>
<path d="M1191.9 -157.353L949.677 -116.769C903.937 -109.105 885.971 -52.9571 918.765 -20.1692L1019.59 80.6527L1120.41 181.475C1153.2 214.263 1209.34 196.304 1217.01 150.563L1257.59 -91.6637C1259.09 -100.627 1258.43 -109.82 1255.66 -118.476C1252.89 -127.133 1248.1 -135.002 1241.67 -141.429C1235.24 -147.855 1227.37 -152.653 1218.72 -155.423C1210.06 -158.193 1200.87 -158.855 1191.9 -157.353V-157.353Z" fill="#FFB793"/>
</svg>
